<?xml version="1.0" encoding="utf-8"?>
<!DOCTYPE svg PUBLIC "-//W3C//DTD SVG 1.1//EN" "http://www.w3.org/Graphics/SVG/1.1/DTD/svg11.dtd">
<svg version="1.1" id="logo-default" xmlns="http://www.w3.org/2000/svg" xmlns:xlink="http://www.w3.org/1999/xlink" x="0px" y="0px"
	 width="35px" height="35px" viewBox="0 0 35 35" enable-background="new 0 0 35 35" xml:space="preserve">
<g id="symbol_01">
	<path id="path_01" fill="#232331" d="M19.431,6.928c1.885,1.708,2.828,4.083,2.828,7.126s-0.914,5.451-2.744,7.223
		c-1.83,1.774-4.629,2.66-8.4,2.66H4.619V4.366h6.72C14.848,4.366,17.546,5.22,19.431,6.928z M18.927,14.138
		c0-4.48-2.567-6.72-7.7-6.72H7.923V20.83h3.668c2.371,0,4.186-0.564,5.446-1.694C18.296,18.007,18.927,16.341,18.927,14.138z"/>
</g>
<g id="symbol_02">
	<path id="path_02" fill="#232331" d="M22.945,32.012h-3.696l-7.868-19.572h3.696l6.02,14.615l6.021-14.615h3.696L22.945,32.012z"/>
</g>
</svg>
