<?xml version="1.0" encoding="utf-8"?>
<!-- Generator: Adobe Illustrator 16.0.4, SVG Export Plug-In . SVG Version: 6.00 Build 0)  -->
<!DOCTYPE svg PUBLIC "-//W3C//DTD SVG 1.1//EN" "http://www.w3.org/Graphics/SVG/1.1/DTD/svg11.dtd">
<svg version="1.1" id="placeholder" xmlns="http://www.w3.org/2000/svg" xmlns:xlink="http://www.w3.org/1999/xlink" x="0px"
	 y="0px" width="960px" height="400px" viewBox="0 0 960 400" enable-background="new 0 0 960 400" xml:space="preserve">
<rect id="background" fill="#181822" width="960" height="400"/>
<g id="logo">
	<g id="symbol_x5F_01">
		<path id="path_1_" fill="#F2F3FF" d="M489.304,138.901c10.227,9.268,15.345,22.156,15.345,38.664s-4.959,29.574-14.889,39.191
			c-9.931,9.628-25.119,14.434-45.577,14.434h-35.247V125h36.464C464.439,125,479.076,129.633,489.304,138.901z M486.569,178.021
			c0-24.308-13.928-36.463-41.777-36.463h-17.928v72.772h19.902c12.862,0,22.712-3.063,29.547-9.191
			C483.146,199.011,486.569,189.972,486.569,178.021z"/>
	</g>
	<g id="symbol_x5F_02">
		<path id="path" fill="#F2F3FF" d="M508.373,275h-20.055L445.63,168.805h20.052l32.662,79.3l32.666-79.3h20.055L508.373,275z"/>
	</g>
</g>
</svg>
