<?xml version="1.0" encoding="utf-8"?>
<!-- Generator: Adobe Illustrator 16.0.4, SVG Export Plug-In . SVG Version: 6.00 Build 0)  -->
<!DOCTYPE svg PUBLIC "-//W3C//DTD SVG 1.1//EN" "http://www.w3.org/Graphics/SVG/1.1/DTD/svg11.dtd">
<svg version="1.1" id="uikit" xmlns="http://www.w3.org/2000/svg" xmlns:xlink="http://www.w3.org/1999/xlink" x="0px" y="0px"
	 width="1080px" height="540px" viewBox="0 0 1080 540" enable-background="new 0 0 1080 540" xml:space="preserve">
<g id="background">
	<rect fill="#181822" width="1080" height="540"/>
</g>
<g>
	<path fill="#F2F3FF" d="M315.002,247.185c6.06,5.49,9.09,13.126,9.09,22.905c0,9.78-2.94,17.521-8.82,23.221
		c-5.881,5.7-14.881,8.549-27,8.549h-20.88v-62.91h21.6C300.271,238.95,308.941,241.695,315.002,247.185z M313.382,270.36
		c0-14.4-8.25-21.6-24.75-21.6h-10.62v43.109h11.79c7.619,0,13.455-1.813,17.505-5.444
		C311.357,282.795,313.382,277.44,313.382,270.36z"/>
	<path fill="#F2F3FF" d="M390.422,293.175c-6.36,6.21-14.22,9.315-23.58,9.315c-9.36,0-17.221-3.105-23.58-9.315
		c-6.361-6.21-9.54-13.95-9.54-23.22c0-9.27,3.179-17.01,9.54-23.22c6.359-6.21,14.22-9.315,23.58-9.315
		c9.36,0,17.22,3.105,23.58,9.315c6.359,6.21,9.54,13.95,9.54,23.22C399.962,279.225,396.781,286.965,390.422,293.175z
		 M382.637,253.8c-4.291-4.439-9.556-6.66-15.795-6.66c-6.241,0-11.506,2.221-15.795,6.66c-4.291,4.441-6.435,9.826-6.435,16.155
		c0,6.33,2.145,11.715,6.435,16.154c4.289,4.441,9.554,6.66,15.795,6.66c6.24,0,11.505-2.219,15.795-6.66
		c4.289-4.439,6.435-9.824,6.435-16.154C389.072,263.625,386.926,258.241,382.637,253.8z"/>
	<path fill="#F2F3FF" d="M413.372,301.859v-62.91h10.62v52.83h28.71v10.08H413.372z"/>
	<path fill="#F2F3FF" d="M493.021,292.23c3.659,0,6.809-0.615,9.45-1.846c2.639-1.229,5.4-3.195,8.28-5.895l6.84,7.02
		c-6.66,7.38-14.746,11.07-24.255,11.07c-9.51,0-17.401-3.061-23.67-9.18c-6.271-6.121-9.405-13.86-9.405-23.221
		c0-9.36,3.195-17.159,9.585-23.4c6.39-6.239,14.459-9.36,24.21-9.36c9.75,0,17.895,3.6,24.435,10.8l-6.75,7.38
		c-3.001-2.88-5.836-4.89-8.505-6.03c-2.67-1.139-5.805-1.71-9.405-1.71c-6.36,0-11.7,2.056-16.02,6.165
		c-4.32,4.11-6.48,9.36-6.48,15.75s2.145,11.731,6.435,16.02C482.055,290.086,487.14,292.23,493.021,292.23z"/>
	<path fill="#F2F3FF" d="M574.74,238.95v9.99h-33.57v16.65h30.15v9.45h-30.15v16.829h34.65v9.99h-45.27v-62.91H574.74z"/>
	<path fill="#F2F3FF" d="M642.778,301.859h-11.88l-25.29-62.91h11.88l19.35,46.98l19.35-46.98h11.881L642.778,301.859z"/>
	<path fill="#F2F3FF" d="M677.068,238.95h10.619v62.91h-10.619V238.95z"/>
	<path fill="#F2F3FF" d="M728.908,248.67v53.189h-10.621V248.67h-19.08v-9.72h48.781v9.72H728.908z"/>
	<path fill="#F2F3FF" d="M763.467,287.55l-6.299,14.31h-11.34l27.719-62.91h11.34l27.721,62.91h-11.34l-6.301-14.31H763.467z
		 M790.648,277.74l-11.432-25.92l-11.43,25.92H790.648z"/>
</g>
</svg>
