<?xml version="1.0" encoding="utf-8"?>
<!-- Generator: Adobe Illustrator 16.0.4, SVG Export Plug-In . SVG Version: 6.00 Build 0)  -->
<!DOCTYPE svg PUBLIC "-//W3C//DTD SVG 1.1//EN" "http://www.w3.org/Graphics/SVG/1.1/DTD/svg11.dtd">
<svg version="1.1" id="avatar" xmlns="http://www.w3.org/2000/svg" xmlns:xlink="http://www.w3.org/1999/xlink" x="0px" y="0px"
	 width="50px" height="50px" viewBox="0 0 50 50" enable-background="new 0 0 50 50" xml:space="preserve">
<rect id="background" fill="#181822" width="50" height="50"/>
<g id="logo">
	<g id="symbol_x5F_01">
		<path id="path_1_" fill="#F2F3FF" d="M27.646,16.224c1.636,1.483,2.455,3.545,2.455,6.187c0,2.641-0.794,4.732-2.383,6.271
			c-1.589,1.54-4.019,2.309-7.292,2.309h-5.64V14h5.834C23.667,14,26.01,14.741,27.646,16.224z M27.209,22.483
			c0-3.889-2.229-5.834-6.685-5.834h-2.869v11.644h3.185c2.058,0,3.633-0.49,4.727-1.471C26.66,25.842,27.209,24.396,27.209,22.483z
			"/>
	</g>
	<g id="symbol_x5F_02">
		<path id="path" fill="#F2F3FF" d="M30.697,38h-3.209l-6.83-16.991h3.208l5.227,12.688l5.227-12.688h3.208L30.697,38z"/>
	</g>
</g>
</svg>
